<mxfile host="65bd71144e">
    <diagram id="g5ZsnBkL6UbHu-Tv1bW6" name="B+ Tree diagram">
        <mxGraphModel grid="0" gridSize="10" guides="1" tooltips="1" connect="1" arrows="1" page="1" fold="1" pageScale="1" pageWidth="1169" pageHeight="827" math="0" shadow="0">
            <root>
                <mxCell id="0"/>
                <mxCell id="1" parent="0"/>
                <mxCell id="20" value="" style="group;fontColor=#5AA9E6;" vertex="1" connectable="0" parent="1">
                    <mxGeometry x="490" y="250" width="190" height="30" as="geometry"/>
                </mxCell>
                <mxCell id="9" value="5" style="rounded=0;whiteSpace=wrap;html=1;fillColor=#FFE45E;strokeColor=#FF6392;fontColor=#5AA9E6;" vertex="1" parent="20">
                    <mxGeometry x="10" width="50" height="30" as="geometry"/>
                </mxCell>
                <mxCell id="14" value="9" style="rounded=0;whiteSpace=wrap;html=1;fillColor=#FFE45E;strokeColor=#FF6392;fontColor=#5AA9E6;" vertex="1" parent="20">
                    <mxGeometry x="70" width="50" height="30" as="geometry"/>
                </mxCell>
                <mxCell id="15" value="" style="rounded=0;whiteSpace=wrap;html=1;fillColor=#FFE45E;strokeColor=#FF6392;fontColor=#5AA9E6;" vertex="1" parent="20">
                    <mxGeometry width="10" height="30" as="geometry"/>
                </mxCell>
                <mxCell id="16" value="" style="rounded=0;whiteSpace=wrap;html=1;fillColor=#FFE45E;strokeColor=#FF6392;fontColor=#5AA9E6;" vertex="1" parent="20">
                    <mxGeometry x="60" width="10" height="30" as="geometry"/>
                </mxCell>
                <mxCell id="17" value="" style="rounded=0;whiteSpace=wrap;html=1;fillColor=#FFE45E;strokeColor=#FF6392;fontColor=#5AA9E6;" vertex="1" parent="20">
                    <mxGeometry x="120" width="10" height="30" as="geometry"/>
                </mxCell>
                <mxCell id="18" value="" style="rounded=0;whiteSpace=wrap;html=1;fillColor=#FFE45E;strokeColor=#FF6392;fontColor=#5AA9E6;" vertex="1" parent="20">
                    <mxGeometry x="130" width="50" height="30" as="geometry"/>
                </mxCell>
                <mxCell id="19" value="" style="rounded=0;whiteSpace=wrap;html=1;fillColor=#FFE45E;strokeColor=#FF6392;fontColor=#5AA9E6;" vertex="1" parent="20">
                    <mxGeometry x="180" width="10" height="30" as="geometry"/>
                </mxCell>
                <mxCell id="70" value="" style="endArrow=none;dashed=1;html=1;fontColor=#5AA9E6;strokeColor=#6F0000;fillColor=#a20025;entryX=0;entryY=0;entryDx=0;entryDy=0;exitX=0;exitY=1;exitDx=0;exitDy=0;" edge="1" parent="20" source="15" target="15">
                    <mxGeometry width="50" height="50" relative="1" as="geometry">
                        <mxPoint x="-30" y="-40" as="sourcePoint"/>
                        <mxPoint x="20" y="-90" as="targetPoint"/>
                    </mxGeometry>
                </mxCell>
                <mxCell id="71" value="" style="endArrow=none;dashed=1;html=1;fontColor=#5AA9E6;strokeColor=#6F0000;fillColor=#a20025;entryX=0;entryY=0;entryDx=0;entryDy=0;exitX=0;exitY=0;exitDx=0;exitDy=0;" edge="1" parent="20" source="16" target="15">
                    <mxGeometry width="50" height="50" relative="1" as="geometry">
                        <mxPoint x="10" y="39.99999999999994" as="sourcePoint"/>
                        <mxPoint x="10" y="10" as="targetPoint"/>
                    </mxGeometry>
                </mxCell>
                <mxCell id="72" value="" style="endArrow=none;dashed=1;html=1;fontColor=#5AA9E6;strokeColor=#6F0000;fillColor=#a20025;entryX=1;entryY=0;entryDx=0;entryDy=0;exitX=0;exitY=1;exitDx=0;exitDy=0;" edge="1" parent="20" source="16" target="9">
                    <mxGeometry width="50" height="50" relative="1" as="geometry">
                        <mxPoint x="20" y="49.99999999999994" as="sourcePoint"/>
                        <mxPoint x="20" y="20" as="targetPoint"/>
                    </mxGeometry>
                </mxCell>
                <mxCell id="73" value="" style="endArrow=none;dashed=1;html=1;fontColor=#5AA9E6;strokeColor=#6F0000;fillColor=#a20025;entryX=0;entryY=1;entryDx=0;entryDy=0;exitX=1;exitY=1;exitDx=0;exitDy=0;" edge="1" parent="20" source="9" target="15">
                    <mxGeometry width="50" height="50" relative="1" as="geometry">
                        <mxPoint x="30" y="59.99999999999994" as="sourcePoint"/>
                        <mxPoint x="30" y="30" as="targetPoint"/>
                    </mxGeometry>
                </mxCell>
                <mxCell id="21" value="" style="group;fontColor=#5AA9E6;" vertex="1" connectable="0" parent="1">
                    <mxGeometry x="290" y="400" width="190" height="30" as="geometry"/>
                </mxCell>
                <mxCell id="22" value="1" style="rounded=0;whiteSpace=wrap;html=1;fillColor=#FFE45E;strokeColor=#FF6392;fontColor=#5AA9E6;" vertex="1" parent="21">
                    <mxGeometry x="10" width="50" height="30" as="geometry"/>
                </mxCell>
                <mxCell id="23" value="3" style="rounded=0;whiteSpace=wrap;html=1;fillColor=#FFE45E;strokeColor=#FF6392;fontColor=#5AA9E6;" vertex="1" parent="21">
                    <mxGeometry x="70" width="50" height="30" as="geometry"/>
                </mxCell>
                <mxCell id="24" value="" style="rounded=0;whiteSpace=wrap;html=1;fillColor=#FFE45E;strokeColor=#FF6392;fontColor=#5AA9E6;" vertex="1" parent="21">
                    <mxGeometry width="10" height="30" as="geometry"/>
                </mxCell>
                <mxCell id="25" value="" style="rounded=0;whiteSpace=wrap;html=1;fillColor=#FFE45E;strokeColor=#FF6392;fontColor=#5AA9E6;" vertex="1" parent="21">
                    <mxGeometry x="60" width="10" height="30" as="geometry"/>
                </mxCell>
                <mxCell id="26" value="" style="rounded=0;whiteSpace=wrap;html=1;fillColor=#FFE45E;strokeColor=#FF6392;fontColor=#5AA9E6;" vertex="1" parent="21">
                    <mxGeometry x="120" width="10" height="30" as="geometry"/>
                </mxCell>
                <mxCell id="27" value="" style="rounded=0;whiteSpace=wrap;html=1;fillColor=#FFE45E;strokeColor=#FF6392;fontColor=#5AA9E6;" vertex="1" parent="21">
                    <mxGeometry x="130" width="50" height="30" as="geometry"/>
                </mxCell>
                <mxCell id="28" value="" style="rounded=0;whiteSpace=wrap;html=1;fillColor=#FFE45E;strokeColor=#FF6392;fontColor=#5AA9E6;" vertex="1" parent="21">
                    <mxGeometry x="180" width="10" height="30" as="geometry"/>
                </mxCell>
                <mxCell id="86" value="" style="endArrow=none;html=1;fontColor=#5AA9E6;strokeColor=#6F0000;fillColor=#a20025;entryX=0;entryY=1;entryDx=0;entryDy=0;exitX=0;exitY=0;exitDx=0;exitDy=0;dashed=1;" edge="1" parent="21" source="24" target="24">
                    <mxGeometry width="50" height="50" relative="1" as="geometry">
                        <mxPoint x="-80" y="13.999999999999886" as="sourcePoint"/>
                        <mxPoint x="10" y="34" as="targetPoint"/>
                    </mxGeometry>
                </mxCell>
                <mxCell id="87" value="" style="endArrow=none;html=1;fontColor=#5AA9E6;strokeColor=#6F0000;fillColor=#a20025;dashed=1;exitX=0;exitY=0;exitDx=0;exitDy=0;entryX=1;entryY=0;entryDx=0;entryDy=0;" edge="1" parent="21" source="24" target="22">
                    <mxGeometry width="50" height="50" relative="1" as="geometry">
                        <mxPoint as="sourcePoint"/>
                        <mxPoint x="-30" y="-10" as="targetPoint"/>
                    </mxGeometry>
                </mxCell>
                <mxCell id="88" value="" style="endArrow=none;html=1;fontColor=#5AA9E6;strokeColor=#6F0000;fillColor=#a20025;exitX=1;exitY=1;exitDx=0;exitDy=0;dashed=1;entryX=0;entryY=1;entryDx=0;entryDy=0;" edge="1" parent="21" source="22" target="24">
                    <mxGeometry width="50" height="50" relative="1" as="geometry">
                        <mxPoint x="-29.999999999999886" y="-40.000000000000114" as="sourcePoint"/>
                        <mxPoint x="-19.999999999999886" y="1.1368683772161603e-13" as="targetPoint"/>
                    </mxGeometry>
                </mxCell>
                <mxCell id="89" value="" style="endArrow=none;html=1;fontColor=#5AA9E6;strokeColor=#6F0000;fillColor=#a20025;exitX=1;exitY=0;exitDx=0;exitDy=0;dashed=1;entryX=1;entryY=1;entryDx=0;entryDy=0;" edge="1" parent="21" source="22" target="22">
                    <mxGeometry width="50" height="50" relative="1" as="geometry">
                        <mxPoint x="-19.999999999999886" y="-30.000000000000114" as="sourcePoint"/>
                        <mxPoint x="-9.999999999999886" y="10.000000000000114" as="targetPoint"/>
                    </mxGeometry>
                </mxCell>
                <mxCell id="29" value="" style="group;fontColor=#5AA9E6;" vertex="1" connectable="0" parent="1">
                    <mxGeometry x="490" y="400" width="190" height="30" as="geometry"/>
                </mxCell>
                <mxCell id="30" value="6" style="rounded=0;whiteSpace=wrap;html=1;fillColor=#FFE45E;strokeColor=#FF6392;fontColor=#5AA9E6;" vertex="1" parent="29">
                    <mxGeometry x="10" width="50" height="30" as="geometry"/>
                </mxCell>
                <mxCell id="31" value="7" style="rounded=0;whiteSpace=wrap;html=1;fillColor=#FFE45E;strokeColor=#FF6392;fontColor=#5AA9E6;" vertex="1" parent="29">
                    <mxGeometry x="70" width="50" height="30" as="geometry"/>
                </mxCell>
                <mxCell id="32" value="" style="rounded=0;whiteSpace=wrap;html=1;fillColor=#FFE45E;strokeColor=#FF6392;fontColor=#5AA9E6;" vertex="1" parent="29">
                    <mxGeometry width="10" height="30" as="geometry"/>
                </mxCell>
                <mxCell id="33" value="" style="rounded=0;whiteSpace=wrap;html=1;fillColor=#FFE45E;strokeColor=#FF6392;fontColor=#5AA9E6;" vertex="1" parent="29">
                    <mxGeometry x="60" width="10" height="30" as="geometry"/>
                </mxCell>
                <mxCell id="34" value="" style="rounded=0;whiteSpace=wrap;html=1;fillColor=#FFE45E;strokeColor=#FF6392;fontColor=#5AA9E6;" vertex="1" parent="29">
                    <mxGeometry x="120" width="10" height="30" as="geometry"/>
                </mxCell>
                <mxCell id="35" value="" style="rounded=0;whiteSpace=wrap;html=1;fillColor=#FFE45E;strokeColor=#FF6392;fontColor=#5AA9E6;" vertex="1" parent="29">
                    <mxGeometry x="130" width="50" height="30" as="geometry"/>
                </mxCell>
                <mxCell id="36" value="" style="rounded=0;whiteSpace=wrap;html=1;fillColor=#FFE45E;strokeColor=#FF6392;fontColor=#5AA9E6;" vertex="1" parent="29">
                    <mxGeometry x="180" width="10" height="30" as="geometry"/>
                </mxCell>
                <mxCell id="37" value="" style="group;fontColor=#5AA9E6;" vertex="1" connectable="0" parent="1">
                    <mxGeometry x="690" y="400" width="190" height="30" as="geometry"/>
                </mxCell>
                <mxCell id="38" value="9" style="rounded=0;whiteSpace=wrap;html=1;fillColor=#FFE45E;strokeColor=#FF6392;fontColor=#5AA9E6;" vertex="1" parent="37">
                    <mxGeometry x="10" width="50" height="30" as="geometry"/>
                </mxCell>
                <mxCell id="39" value="13" style="rounded=0;whiteSpace=wrap;html=1;fillColor=#FFE45E;strokeColor=#FF6392;fontColor=#5AA9E6;" vertex="1" parent="37">
                    <mxGeometry x="70" width="50" height="30" as="geometry"/>
                </mxCell>
                <mxCell id="40" value="" style="rounded=0;whiteSpace=wrap;html=1;fillColor=#FFE45E;strokeColor=#FF6392;fontColor=#5AA9E6;" vertex="1" parent="37">
                    <mxGeometry width="10" height="30" as="geometry"/>
                </mxCell>
                <mxCell id="41" value="" style="rounded=0;whiteSpace=wrap;html=1;fillColor=#FFE45E;strokeColor=#FF6392;fontColor=#5AA9E6;" vertex="1" parent="37">
                    <mxGeometry x="60" width="10" height="30" as="geometry"/>
                </mxCell>
                <mxCell id="42" value="" style="rounded=0;whiteSpace=wrap;html=1;fillColor=#FFE45E;strokeColor=#FF6392;fontColor=#5AA9E6;" vertex="1" parent="37">
                    <mxGeometry x="120" width="10" height="30" as="geometry"/>
                </mxCell>
                <mxCell id="43" value="" style="rounded=0;whiteSpace=wrap;html=1;fillColor=#FFE45E;strokeColor=#FF6392;fontColor=#5AA9E6;" vertex="1" parent="37">
                    <mxGeometry x="130" width="50" height="30" as="geometry"/>
                </mxCell>
                <mxCell id="44" value="" style="rounded=0;whiteSpace=wrap;html=1;fillColor=#FFE45E;strokeColor=#FF6392;fontColor=#5AA9E6;" vertex="1" parent="37">
                    <mxGeometry x="180" width="10" height="30" as="geometry"/>
                </mxCell>
                <mxCell id="46" value="&amp;lt;5" style="edgeStyle=orthogonalEdgeStyle;rounded=0;orthogonalLoop=1;jettySize=auto;html=1;exitX=0.5;exitY=1;exitDx=0;exitDy=0;entryX=0.5;entryY=0;entryDx=0;entryDy=0;curved=1;endArrow=blockThin;endFill=1;strokeColor=#FF6392;fontColor=#5AA9E6;" edge="1" parent="1" source="15" target="24">
                    <mxGeometry relative="1" as="geometry"/>
                </mxCell>
                <mxCell id="47" style="edgeStyle=orthogonalEdgeStyle;curved=1;rounded=0;orthogonalLoop=1;jettySize=auto;html=1;exitX=0.5;exitY=0;exitDx=0;exitDy=0;entryX=0.5;entryY=0;entryDx=0;entryDy=0;endArrow=blockThin;endFill=1;strokeWidth=1;startSize=6;strokeColor=#FF6392;fontColor=#5AA9E6;" edge="1" parent="1" source="28" target="32">
                    <mxGeometry relative="1" as="geometry">
                        <Array as="points">
                            <mxPoint x="475" y="390"/>
                            <mxPoint x="495" y="390"/>
                        </Array>
                    </mxGeometry>
                </mxCell>
                <mxCell id="50" style="edgeStyle=orthogonalEdgeStyle;rounded=0;orthogonalLoop=1;jettySize=auto;html=1;exitX=0.5;exitY=1;exitDx=0;exitDy=0;endArrow=blockThin;endFill=1;startSize=6;strokeWidth=1;curved=1;entryX=0.5;entryY=1;entryDx=0;entryDy=0;strokeColor=#FF6392;fontColor=#5AA9E6;" edge="1" parent="1" source="32" target="28">
                    <mxGeometry relative="1" as="geometry">
                        <mxPoint x="495.1162790697674" y="450" as="targetPoint"/>
                        <Array as="points">
                            <mxPoint x="495" y="440"/>
                            <mxPoint x="475" y="440"/>
                        </Array>
                    </mxGeometry>
                </mxCell>
                <mxCell id="51" style="edgeStyle=orthogonalEdgeStyle;curved=1;rounded=0;orthogonalLoop=1;jettySize=auto;html=1;exitX=0.5;exitY=0;exitDx=0;exitDy=0;entryX=0.5;entryY=0;entryDx=0;entryDy=0;endArrow=blockThin;endFill=1;startSize=6;strokeWidth=1;strokeColor=#FF6392;fontColor=#5AA9E6;" edge="1" parent="1" source="36" target="40">
                    <mxGeometry relative="1" as="geometry">
                        <Array as="points">
                            <mxPoint x="675" y="390"/>
                            <mxPoint x="695" y="390"/>
                        </Array>
                    </mxGeometry>
                </mxCell>
                <mxCell id="52" style="edgeStyle=orthogonalEdgeStyle;curved=1;rounded=0;orthogonalLoop=1;jettySize=auto;html=1;exitX=0.5;exitY=1;exitDx=0;exitDy=0;entryX=0.5;entryY=1;entryDx=0;entryDy=0;endArrow=blockThin;endFill=1;startSize=6;strokeWidth=1;strokeColor=#FF6392;fontColor=#5AA9E6;" edge="1" parent="1" source="40" target="36">
                    <mxGeometry relative="1" as="geometry">
                        <Array as="points">
                            <mxPoint x="695" y="440"/>
                            <mxPoint x="675" y="440"/>
                        </Array>
                    </mxGeometry>
                </mxCell>
                <mxCell id="54" value="&amp;lt;9" style="edgeStyle=orthogonalEdgeStyle;curved=1;rounded=1;sketch=0;orthogonalLoop=1;jettySize=auto;html=1;exitX=0.5;exitY=1;exitDx=0;exitDy=0;entryX=0.25;entryY=0;entryDx=0;entryDy=0;fontColor=#5AA9E6;strokeColor=#FF6392;fillColor=#FFE45E;" edge="1" parent="1" source="16" target="30">
                    <mxGeometry relative="1" as="geometry"/>
                </mxCell>
                <mxCell id="55" value="≥9" style="edgeStyle=orthogonalEdgeStyle;curved=1;rounded=1;sketch=0;orthogonalLoop=1;jettySize=auto;html=1;exitX=0.5;exitY=1;exitDx=0;exitDy=0;entryX=0.25;entryY=0;entryDx=0;entryDy=0;fontColor=#5AA9E6;strokeColor=#FF6392;fillColor=#FFE45E;" edge="1" parent="1" source="17" target="38">
                    <mxGeometry relative="1" as="geometry"/>
                </mxCell>
                <mxCell id="58" value="Inner node" style="text;html=1;align=center;verticalAlign=middle;resizable=0;points=[];autosize=1;strokeColor=none;fontColor=#5AA9E6;" vertex="1" parent="1">
                    <mxGeometry x="550" y="230" width="70" height="20" as="geometry"/>
                </mxCell>
                <mxCell id="59" value="" style="endArrow=none;dashed=1;html=1;dashPattern=1 3;strokeWidth=2;fontColor=#5AA9E6;fillColor=#a20025;strokeColor=#FF6392;entryX=0.799;entryY=-0.003;entryDx=0;entryDy=0;entryPerimeter=0;" edge="1" parent="1" target="61">
                    <mxGeometry width="50" height="50" relative="1" as="geometry">
                        <mxPoint x="680" y="440" as="sourcePoint"/>
                        <mxPoint x="620" y="510" as="targetPoint"/>
                    </mxGeometry>
                </mxCell>
                <mxCell id="60" value="" style="endArrow=none;dashed=1;html=1;dashPattern=1 3;strokeWidth=2;fontColor=#5AA9E6;fillColor=#a20025;strokeColor=#FF6392;entryX=0.194;entryY=-0.017;entryDx=0;entryDy=0;entryPerimeter=0;" edge="1" parent="1" target="61">
                    <mxGeometry width="50" height="50" relative="1" as="geometry">
                        <mxPoint x="490" y="440" as="sourcePoint"/>
                        <mxPoint x="570.0000000000001" y="510" as="targetPoint"/>
                    </mxGeometry>
                </mxCell>
                <mxCell id="61" value="Sibling Pointers" style="text;html=1;align=center;verticalAlign=middle;resizable=0;points=[];autosize=1;strokeColor=none;fontColor=#5AA9E6;" vertex="1" parent="1">
                    <mxGeometry x="550" y="510" width="100" height="20" as="geometry"/>
                </mxCell>
                <mxCell id="62" value="" style="endArrow=none;html=1;fontColor=#5AA9E6;fillColor=#a20025;entryX=0;entryY=0;entryDx=0;entryDy=0;exitX=1;exitY=0;exitDx=0;exitDy=0;dashed=1;strokeColor=#FF6392;" edge="1" parent="1" target="15">
                    <mxGeometry width="50" height="50" relative="1" as="geometry">
                        <mxPoint x="400" y="219.9999999999999" as="sourcePoint"/>
                        <mxPoint x="460" y="250" as="targetPoint"/>
                    </mxGeometry>
                </mxCell>
                <mxCell id="63" value="" style="endArrow=none;html=1;fontColor=#5AA9E6;fillColor=#a20025;entryX=0;entryY=1;entryDx=0;entryDy=0;exitX=1;exitY=1;exitDx=0;exitDy=0;dashed=1;strokeColor=#FF6392;" edge="1" parent="1" target="15">
                    <mxGeometry width="50" height="50" relative="1" as="geometry">
                        <mxPoint x="400" y="259.9999999999999" as="sourcePoint"/>
                        <mxPoint x="490.0000000000001" y="280" as="targetPoint"/>
                    </mxGeometry>
                </mxCell>
                <mxCell id="74" value="" style="endArrow=none;html=1;fontColor=#5AA9E6;strokeColor=#FF6392;fillColor=#FFE45E;entryX=0.5;entryY=1;entryDx=0;entryDy=0;exitX=0.5;exitY=0;exitDx=0;exitDy=0;" edge="1" parent="1">
                    <mxGeometry width="50" height="50" relative="1" as="geometry">
                        <mxPoint x="345" y="219.9999999999999" as="sourcePoint"/>
                        <mxPoint x="345" y="259.9999999999999" as="targetPoint"/>
                    </mxGeometry>
                </mxCell>
                <mxCell id="78" value="" style="shape=table;container=1;collapsible=0;childLayout=tableLayout;rounded=0;fontColor=#5AA9E6;strokeColor=#FF6392;fillColor=#FFE45E;" vertex="1" parent="1">
                    <mxGeometry x="280" y="220" width="120" height="40" as="geometry"/>
                </mxCell>
                <mxCell id="79" value="" style="shape=partialRectangle;collapsible=0;dropTarget=0;pointerEvents=0;fillColor=none;top=0;left=0;bottom=0;right=0;points=[[0,0.5],[1,0.5]];portConstraint=eastwest;" vertex="1" parent="78">
                    <mxGeometry width="120" height="40" as="geometry"/>
                </mxCell>
                <mxCell id="80" value="&amp;lt;Node *&amp;gt;" style="shape=partialRectangle;html=1;whiteSpace=wrap;connectable=0;overflow=hidden;fillColor=none;top=0;left=0;bottom=0;right=1;strokeColor=#FF6392;fontColor=#5AA9E6;" vertex="1" parent="79">
                    <mxGeometry width="60" height="40" as="geometry"/>
                </mxCell>
                <mxCell id="81" value="&amp;lt;Key&amp;gt;" style="shape=partialRectangle;html=1;whiteSpace=wrap;connectable=0;overflow=hidden;fillColor=none;top=0;left=1;bottom=0;right=0;strokeColor=#FF6392;fontColor=#5AA9E6;" vertex="1" parent="79">
                    <mxGeometry x="60" width="60" height="40" as="geometry"/>
                </mxCell>
                <mxCell id="82" value="" style="shape=table;container=1;collapsible=0;childLayout=tableLayout;rounded=0;fontColor=#5AA9E6;strokeColor=#FF6392;fillColor=#FFE45E;" vertex="1" parent="1">
                    <mxGeometry x="290" y="500" width="120" height="40" as="geometry"/>
                </mxCell>
                <mxCell id="83" value="" style="shape=partialRectangle;collapsible=0;dropTarget=0;pointerEvents=0;fillColor=none;top=0;left=0;bottom=0;right=0;points=[[0,0.5],[1,0.5]];portConstraint=eastwest;" vertex="1" parent="82">
                    <mxGeometry width="120" height="40" as="geometry"/>
                </mxCell>
                <mxCell id="84" value="&amp;lt;Value&amp;gt;" style="shape=partialRectangle;html=1;whiteSpace=wrap;connectable=0;overflow=hidden;fillColor=none;top=0;left=0;bottom=0;right=1;strokeColor=#FF6392;fontColor=#5AA9E6;" vertex="1" parent="83">
                    <mxGeometry width="60" height="40" as="geometry"/>
                </mxCell>
                <mxCell id="85" value="&amp;lt;Key&amp;gt;" style="shape=partialRectangle;html=1;whiteSpace=wrap;connectable=0;overflow=hidden;fillColor=none;top=0;left=1;bottom=0;right=0;strokeColor=#FF6392;fontColor=#5AA9E6;" vertex="1" parent="83">
                    <mxGeometry x="60" width="60" height="40" as="geometry"/>
                </mxCell>
                <mxCell id="90" value="" style="endArrow=none;html=1;fontColor=#5AA9E6;fillColor=#a20025;dashed=1;entryX=0;entryY=1;entryDx=0;entryDy=0;strokeColor=#FF6392;" edge="1" parent="1" target="24">
                    <mxGeometry width="50" height="50" relative="1" as="geometry">
                        <mxPoint x="290" y="500" as="sourcePoint"/>
                        <mxPoint x="280" y="450" as="targetPoint"/>
                    </mxGeometry>
                </mxCell>
                <mxCell id="91" value="" style="endArrow=none;html=1;fontColor=#5AA9E6;fillColor=#a20025;exitX=0;exitY=1;exitDx=0;exitDy=0;dashed=1;entryX=0.998;entryY=0.004;entryDx=0;entryDy=0;entryPerimeter=0;strokeColor=#FF6392;" edge="1" parent="1" source="25" target="83">
                    <mxGeometry width="50" height="50" relative="1" as="geometry">
                        <mxPoint x="290.0000000000001" y="389.9999999999999" as="sourcePoint"/>
                        <mxPoint x="300.0000000000001" y="430.0000000000001" as="targetPoint"/>
                    </mxGeometry>
                </mxCell>
                <mxCell id="92" value="Leaf node" style="text;html=1;align=center;verticalAlign=middle;resizable=0;points=[];autosize=1;strokeColor=none;fontColor=#5AA9E6;" vertex="1" parent="1">
                    <mxGeometry x="890" y="405" width="63" height="18" as="geometry"/>
                </mxCell>
            </root>
        </mxGraphModel>
    </diagram>
    <diagram name="Prefix Search" id="lALsTIuI-mNZfIV6mXWH">
        <mxGraphModel dx="1145" dy="667" grid="1" gridSize="10" guides="1" tooltips="1" connect="1" arrows="1" fold="1" page="1" pageScale="1" pageWidth="1169" pageHeight="827" math="0" shadow="0">
            <root>
                <mxCell id="19uY2m7G7Lr0xYHOOk7L-0"/>
                <mxCell id="19uY2m7G7Lr0xYHOOk7L-1" parent="19uY2m7G7Lr0xYHOOk7L-0"/>
                <mxCell id="19uY2m7G7Lr0xYHOOk7L-2" value="" style="group;fontColor=#5AA9E6;" parent="19uY2m7G7Lr0xYHOOk7L-1" vertex="1" connectable="0">
                    <mxGeometry x="501" y="203" width="190" height="30" as="geometry"/>
                </mxCell>
                <mxCell id="19uY2m7G7Lr0xYHOOk7L-3" value="A,C" style="rounded=0;whiteSpace=wrap;html=1;fillColor=#FFE45E;strokeColor=#FF6392;fontColor=#5AA9E6;" parent="19uY2m7G7Lr0xYHOOk7L-2" vertex="1">
                    <mxGeometry x="10" width="50" height="30" as="geometry"/>
                </mxCell>
                <mxCell id="19uY2m7G7Lr0xYHOOk7L-4" value="B,B" style="rounded=0;whiteSpace=wrap;html=1;fillColor=#FFE45E;strokeColor=#FF6392;fontColor=#5AA9E6;" parent="19uY2m7G7Lr0xYHOOk7L-2" vertex="1">
                    <mxGeometry x="70" width="50" height="30" as="geometry"/>
                </mxCell>
                <mxCell id="19uY2m7G7Lr0xYHOOk7L-5" value="" style="rounded=0;whiteSpace=wrap;html=1;fillColor=#FFE45E;strokeColor=#FF6392;fontColor=#5AA9E6;" parent="19uY2m7G7Lr0xYHOOk7L-2" vertex="1">
                    <mxGeometry width="10" height="30" as="geometry"/>
                </mxCell>
                <mxCell id="19uY2m7G7Lr0xYHOOk7L-6" value="" style="rounded=0;whiteSpace=wrap;html=1;fillColor=#FFE45E;strokeColor=#FF6392;fontColor=#5AA9E6;" parent="19uY2m7G7Lr0xYHOOk7L-2" vertex="1">
                    <mxGeometry x="60" width="10" height="30" as="geometry"/>
                </mxCell>
                <mxCell id="19uY2m7G7Lr0xYHOOk7L-7" value="" style="rounded=0;whiteSpace=wrap;html=1;fillColor=#FFE45E;strokeColor=#FF6392;fontColor=#5AA9E6;" parent="19uY2m7G7Lr0xYHOOk7L-2" vertex="1">
                    <mxGeometry x="120" width="10" height="30" as="geometry"/>
                </mxCell>
                <mxCell id="19uY2m7G7Lr0xYHOOk7L-8" value="C,C" style="rounded=0;whiteSpace=wrap;html=1;fillColor=#FFE45E;strokeColor=#FF6392;fontColor=#5AA9E6;" parent="19uY2m7G7Lr0xYHOOk7L-2" vertex="1">
                    <mxGeometry x="130" width="50" height="30" as="geometry"/>
                </mxCell>
                <mxCell id="19uY2m7G7Lr0xYHOOk7L-9" value="" style="rounded=0;whiteSpace=wrap;html=1;fillColor=#FFE45E;strokeColor=#FF6392;fontColor=#5AA9E6;" parent="19uY2m7G7Lr0xYHOOk7L-2" vertex="1">
                    <mxGeometry x="180" width="10" height="30" as="geometry"/>
                </mxCell>
                <mxCell id="19uY2m7G7Lr0xYHOOk7L-93" value="" style="endArrow=none;html=1;fontColor=#5AA9E6;startSize=0;fillColor=#FFE45E;strokeColor=#FF0000;entryX=0;entryY=0;entryDx=0;entryDy=0;exitX=0;exitY=0;exitDx=0;exitDy=0;strokeWidth=2;" edge="1" parent="19uY2m7G7Lr0xYHOOk7L-2" source="19uY2m7G7Lr0xYHOOk7L-6" target="19uY2m7G7Lr0xYHOOk7L-5">
                    <mxGeometry width="50" height="50" relative="1" as="geometry">
                        <mxPoint x="-161" y="37" as="sourcePoint"/>
                        <mxPoint x="-111" y="-13" as="targetPoint"/>
                    </mxGeometry>
                </mxCell>
                <mxCell id="19uY2m7G7Lr0xYHOOk7L-95" value="" style="endArrow=none;html=1;fontColor=#5AA9E6;startSize=0;fillColor=#FFE45E;strokeColor=#FF0000;entryX=1;entryY=1;entryDx=0;entryDy=0;exitX=0;exitY=0;exitDx=0;exitDy=0;strokeWidth=2;" edge="1" parent="19uY2m7G7Lr0xYHOOk7L-2" source="19uY2m7G7Lr0xYHOOk7L-6" target="19uY2m7G7Lr0xYHOOk7L-3">
                    <mxGeometry width="50" height="50" relative="1" as="geometry">
                        <mxPoint x="70" y="10" as="sourcePoint"/>
                        <mxPoint x="10" y="10" as="targetPoint"/>
                    </mxGeometry>
                </mxCell>
                <mxCell id="19uY2m7G7Lr0xYHOOk7L-96" value="" style="endArrow=none;html=1;fontColor=#5AA9E6;startSize=0;fillColor=#FFE45E;strokeColor=#FF0000;entryX=0;entryY=1;entryDx=0;entryDy=0;exitX=0;exitY=1;exitDx=0;exitDy=0;strokeWidth=2;" edge="1" parent="19uY2m7G7Lr0xYHOOk7L-2" source="19uY2m7G7Lr0xYHOOk7L-6" target="19uY2m7G7Lr0xYHOOk7L-5">
                    <mxGeometry width="50" height="50" relative="1" as="geometry">
                        <mxPoint x="80" y="20" as="sourcePoint"/>
                        <mxPoint x="20" y="20" as="targetPoint"/>
                    </mxGeometry>
                </mxCell>
                <mxCell id="19uY2m7G7Lr0xYHOOk7L-14" value="" style="group;fontColor=#5AA9E6;" parent="19uY2m7G7Lr0xYHOOk7L-1" vertex="1" connectable="0">
                    <mxGeometry x="190" y="370" width="190" height="30" as="geometry"/>
                </mxCell>
                <mxCell id="19uY2m7G7Lr0xYHOOk7L-15" value="A,A" style="rounded=0;whiteSpace=wrap;html=1;fillColor=#FFE45E;strokeColor=#FF6392;fontColor=#5AA9E6;" parent="19uY2m7G7Lr0xYHOOk7L-14" vertex="1">
                    <mxGeometry x="10" width="50" height="30" as="geometry"/>
                </mxCell>
                <mxCell id="19uY2m7G7Lr0xYHOOk7L-16" value="A,B" style="rounded=0;whiteSpace=wrap;html=1;fillColor=#FFE45E;strokeColor=#FF6392;fontColor=#5AA9E6;" parent="19uY2m7G7Lr0xYHOOk7L-14" vertex="1">
                    <mxGeometry x="70" width="50" height="30" as="geometry"/>
                </mxCell>
                <mxCell id="19uY2m7G7Lr0xYHOOk7L-17" value="" style="rounded=0;whiteSpace=wrap;html=1;fillColor=#FFE45E;strokeColor=#FF6392;fontColor=#5AA9E6;" parent="19uY2m7G7Lr0xYHOOk7L-14" vertex="1">
                    <mxGeometry width="10" height="30" as="geometry"/>
                </mxCell>
                <mxCell id="19uY2m7G7Lr0xYHOOk7L-18" value="" style="rounded=0;whiteSpace=wrap;html=1;fillColor=#FFE45E;strokeColor=#FF6392;fontColor=#5AA9E6;" parent="19uY2m7G7Lr0xYHOOk7L-14" vertex="1">
                    <mxGeometry x="60" width="10" height="30" as="geometry"/>
                </mxCell>
                <mxCell id="19uY2m7G7Lr0xYHOOk7L-19" value="" style="rounded=0;whiteSpace=wrap;html=1;fillColor=#FFE45E;strokeColor=#FF6392;fontColor=#5AA9E6;" parent="19uY2m7G7Lr0xYHOOk7L-14" vertex="1">
                    <mxGeometry x="120" width="10" height="30" as="geometry"/>
                </mxCell>
                <mxCell id="19uY2m7G7Lr0xYHOOk7L-20" value="" style="rounded=0;whiteSpace=wrap;html=1;fillColor=#FFE45E;strokeColor=#FF6392;fontColor=#5AA9E6;" parent="19uY2m7G7Lr0xYHOOk7L-14" vertex="1">
                    <mxGeometry x="130" width="50" height="30" as="geometry"/>
                </mxCell>
                <mxCell id="19uY2m7G7Lr0xYHOOk7L-21" value="" style="rounded=0;whiteSpace=wrap;html=1;fillColor=#FFE45E;strokeColor=#FF6392;fontColor=#5AA9E6;" parent="19uY2m7G7Lr0xYHOOk7L-14" vertex="1">
                    <mxGeometry x="180" width="10" height="30" as="geometry"/>
                </mxCell>
                <mxCell id="19uY2m7G7Lr0xYHOOk7L-98" value="" style="endArrow=none;html=1;fontColor=#5AA9E6;startSize=0;fillColor=#FFE45E;strokeColor=#FF0000;entryX=0;entryY=0;entryDx=0;entryDy=0;exitX=1;exitY=0;exitDx=0;exitDy=0;strokeWidth=2;" edge="1" parent="19uY2m7G7Lr0xYHOOk7L-14" source="19uY2m7G7Lr0xYHOOk7L-21" target="19uY2m7G7Lr0xYHOOk7L-17">
                    <mxGeometry width="50" height="50" relative="1" as="geometry">
                        <mxPoint x="100" y="-20" as="sourcePoint"/>
                        <mxPoint x="40" y="-20" as="targetPoint"/>
                    </mxGeometry>
                </mxCell>
                <mxCell id="19uY2m7G7Lr0xYHOOk7L-99" value="" style="endArrow=none;html=1;fontColor=#5AA9E6;startSize=0;fillColor=#FFE45E;strokeColor=#FF0000;entryX=0;entryY=1;entryDx=0;entryDy=0;exitX=1;exitY=1;exitDx=0;exitDy=0;strokeWidth=2;" edge="1" parent="19uY2m7G7Lr0xYHOOk7L-14" source="19uY2m7G7Lr0xYHOOk7L-21" target="19uY2m7G7Lr0xYHOOk7L-17">
                    <mxGeometry width="50" height="50" relative="1" as="geometry">
                        <mxPoint x="110" y="-10" as="sourcePoint"/>
                        <mxPoint x="50" y="-10" as="targetPoint"/>
                    </mxGeometry>
                </mxCell>
                <mxCell id="19uY2m7G7Lr0xYHOOk7L-100" value="" style="endArrow=none;html=1;fontColor=#5AA9E6;startSize=0;fillColor=#FFE45E;strokeColor=#FF0000;entryX=0;entryY=0;entryDx=0;entryDy=0;exitX=0;exitY=1;exitDx=0;exitDy=0;strokeWidth=2;" edge="1" parent="19uY2m7G7Lr0xYHOOk7L-14" source="19uY2m7G7Lr0xYHOOk7L-17" target="19uY2m7G7Lr0xYHOOk7L-17">
                    <mxGeometry width="50" height="50" relative="1" as="geometry">
                        <mxPoint x="120" as="sourcePoint"/>
                        <mxPoint x="60" as="targetPoint"/>
                    </mxGeometry>
                </mxCell>
                <mxCell id="19uY2m7G7Lr0xYHOOk7L-101" value="" style="endArrow=none;html=1;fontColor=#5AA9E6;startSize=0;fillColor=#FFE45E;strokeColor=#FF0000;entryX=1;entryY=1;entryDx=0;entryDy=0;exitX=1;exitY=0;exitDx=0;exitDy=0;strokeWidth=2;" edge="1" parent="19uY2m7G7Lr0xYHOOk7L-14" source="19uY2m7G7Lr0xYHOOk7L-21" target="19uY2m7G7Lr0xYHOOk7L-21">
                    <mxGeometry width="50" height="50" relative="1" as="geometry">
                        <mxPoint x="130" y="10" as="sourcePoint"/>
                        <mxPoint x="70" y="10" as="targetPoint"/>
                    </mxGeometry>
                </mxCell>
                <mxCell id="19uY2m7G7Lr0xYHOOk7L-26" value="" style="group;fontColor=#5AA9E6;" parent="19uY2m7G7Lr0xYHOOk7L-1" vertex="1" connectable="0">
                    <mxGeometry x="390" y="370" width="190" height="30" as="geometry"/>
                </mxCell>
                <mxCell id="19uY2m7G7Lr0xYHOOk7L-27" value="A,C" style="rounded=0;whiteSpace=wrap;html=1;fillColor=#FFE45E;strokeColor=#FF6392;fontColor=#5AA9E6;" parent="19uY2m7G7Lr0xYHOOk7L-26" vertex="1">
                    <mxGeometry x="10" width="50" height="30" as="geometry"/>
                </mxCell>
                <mxCell id="19uY2m7G7Lr0xYHOOk7L-28" value="B,A" style="rounded=0;whiteSpace=wrap;html=1;fillColor=#FFE45E;strokeColor=#FF6392;fontColor=#5AA9E6;" parent="19uY2m7G7Lr0xYHOOk7L-26" vertex="1">
                    <mxGeometry x="70" width="50" height="30" as="geometry"/>
                </mxCell>
                <mxCell id="19uY2m7G7Lr0xYHOOk7L-29" value="" style="rounded=0;whiteSpace=wrap;html=1;fillColor=#FFE45E;strokeColor=#FF6392;fontColor=#5AA9E6;" parent="19uY2m7G7Lr0xYHOOk7L-26" vertex="1">
                    <mxGeometry width="10" height="30" as="geometry"/>
                </mxCell>
                <mxCell id="19uY2m7G7Lr0xYHOOk7L-30" value="" style="rounded=0;whiteSpace=wrap;html=1;fillColor=#FFE45E;strokeColor=#FF6392;fontColor=#5AA9E6;" parent="19uY2m7G7Lr0xYHOOk7L-26" vertex="1">
                    <mxGeometry x="60" width="10" height="30" as="geometry"/>
                </mxCell>
                <mxCell id="19uY2m7G7Lr0xYHOOk7L-31" value="" style="rounded=0;whiteSpace=wrap;html=1;fillColor=#FFE45E;strokeColor=#FF6392;fontColor=#5AA9E6;" parent="19uY2m7G7Lr0xYHOOk7L-26" vertex="1">
                    <mxGeometry x="120" width="10" height="30" as="geometry"/>
                </mxCell>
                <mxCell id="19uY2m7G7Lr0xYHOOk7L-32" value="" style="rounded=0;whiteSpace=wrap;html=1;fillColor=#FFE45E;strokeColor=#FF6392;fontColor=#5AA9E6;" parent="19uY2m7G7Lr0xYHOOk7L-26" vertex="1">
                    <mxGeometry x="130" width="50" height="30" as="geometry"/>
                </mxCell>
                <mxCell id="19uY2m7G7Lr0xYHOOk7L-33" value="" style="rounded=0;whiteSpace=wrap;html=1;fillColor=#FFE45E;strokeColor=#FF6392;fontColor=#5AA9E6;" parent="19uY2m7G7Lr0xYHOOk7L-26" vertex="1">
                    <mxGeometry x="180" width="10" height="30" as="geometry"/>
                </mxCell>
                <mxCell id="19uY2m7G7Lr0xYHOOk7L-102" value="" style="endArrow=none;html=1;fontColor=#5AA9E6;startSize=0;fillColor=#FFE45E;strokeColor=#FF0000;entryX=0;entryY=1;entryDx=0;entryDy=0;exitX=0;exitY=0;exitDx=0;exitDy=0;strokeWidth=2;" edge="1" parent="19uY2m7G7Lr0xYHOOk7L-26" source="19uY2m7G7Lr0xYHOOk7L-29" target="19uY2m7G7Lr0xYHOOk7L-29">
                    <mxGeometry width="50" height="50" relative="1" as="geometry">
                        <mxPoint x="-60" y="20" as="sourcePoint"/>
                        <mxPoint x="-120" y="20" as="targetPoint"/>
                    </mxGeometry>
                </mxCell>
                <mxCell id="19uY2m7G7Lr0xYHOOk7L-103" value="" style="endArrow=none;html=1;fontColor=#5AA9E6;startSize=0;fillColor=#FFE45E;strokeColor=#FF0000;entryX=0;entryY=0;entryDx=0;entryDy=0;exitX=0;exitY=0;exitDx=0;exitDy=0;strokeWidth=2;" edge="1" parent="19uY2m7G7Lr0xYHOOk7L-26" source="19uY2m7G7Lr0xYHOOk7L-29" target="19uY2m7G7Lr0xYHOOk7L-30">
                    <mxGeometry width="50" height="50" relative="1" as="geometry">
                        <mxPoint x="-50" y="30" as="sourcePoint"/>
                        <mxPoint x="-110" y="30" as="targetPoint"/>
                    </mxGeometry>
                </mxCell>
                <mxCell id="19uY2m7G7Lr0xYHOOk7L-104" value="" style="endArrow=none;html=1;fontColor=#5AA9E6;startSize=0;fillColor=#FFE45E;strokeColor=#FF0000;entryX=1;entryY=1;entryDx=0;entryDy=0;exitX=0;exitY=0;exitDx=0;exitDy=0;strokeWidth=2;" edge="1" parent="19uY2m7G7Lr0xYHOOk7L-26" source="19uY2m7G7Lr0xYHOOk7L-30" target="19uY2m7G7Lr0xYHOOk7L-27">
                    <mxGeometry width="50" height="50" relative="1" as="geometry">
                        <mxPoint x="-40" y="40" as="sourcePoint"/>
                        <mxPoint x="-100" y="40" as="targetPoint"/>
                    </mxGeometry>
                </mxCell>
                <mxCell id="19uY2m7G7Lr0xYHOOk7L-105" value="" style="endArrow=none;html=1;fontColor=#5AA9E6;startSize=0;fillColor=#FFE45E;strokeColor=#FF0000;entryX=0;entryY=1;entryDx=0;entryDy=0;exitX=0;exitY=1;exitDx=0;exitDy=0;strokeWidth=2;" edge="1" parent="19uY2m7G7Lr0xYHOOk7L-26" source="19uY2m7G7Lr0xYHOOk7L-29" target="19uY2m7G7Lr0xYHOOk7L-30">
                    <mxGeometry width="50" height="50" relative="1" as="geometry">
                        <mxPoint x="-30" y="50" as="sourcePoint"/>
                        <mxPoint x="-90" y="50" as="targetPoint"/>
                    </mxGeometry>
                </mxCell>
                <mxCell id="19uY2m7G7Lr0xYHOOk7L-34" value="" style="group;fontColor=#5AA9E6;" parent="19uY2m7G7Lr0xYHOOk7L-1" vertex="1" connectable="0">
                    <mxGeometry x="590" y="370" width="190" height="30" as="geometry"/>
                </mxCell>
                <mxCell id="19uY2m7G7Lr0xYHOOk7L-35" value="B,B" style="rounded=0;whiteSpace=wrap;html=1;fillColor=#FFE45E;strokeColor=#FF6392;fontColor=#5AA9E6;" parent="19uY2m7G7Lr0xYHOOk7L-34" vertex="1">
                    <mxGeometry x="10" width="50" height="30" as="geometry"/>
                </mxCell>
                <mxCell id="19uY2m7G7Lr0xYHOOk7L-36" value="B,C" style="rounded=0;whiteSpace=wrap;html=1;fillColor=#FFE45E;strokeColor=#FF6392;fontColor=#5AA9E6;" parent="19uY2m7G7Lr0xYHOOk7L-34" vertex="1">
                    <mxGeometry x="70" width="50" height="30" as="geometry"/>
                </mxCell>
                <mxCell id="19uY2m7G7Lr0xYHOOk7L-37" value="" style="rounded=0;whiteSpace=wrap;html=1;fillColor=#FFE45E;strokeColor=#FF6392;fontColor=#5AA9E6;" parent="19uY2m7G7Lr0xYHOOk7L-34" vertex="1">
                    <mxGeometry width="10" height="30" as="geometry"/>
                </mxCell>
                <mxCell id="19uY2m7G7Lr0xYHOOk7L-38" value="" style="rounded=0;whiteSpace=wrap;html=1;fillColor=#FFE45E;strokeColor=#FF6392;fontColor=#5AA9E6;" parent="19uY2m7G7Lr0xYHOOk7L-34" vertex="1">
                    <mxGeometry x="60" width="10" height="30" as="geometry"/>
                </mxCell>
                <mxCell id="19uY2m7G7Lr0xYHOOk7L-39" value="" style="rounded=0;whiteSpace=wrap;html=1;fillColor=#FFE45E;strokeColor=#FF6392;fontColor=#5AA9E6;" parent="19uY2m7G7Lr0xYHOOk7L-34" vertex="1">
                    <mxGeometry x="120" width="10" height="30" as="geometry"/>
                </mxCell>
                <mxCell id="19uY2m7G7Lr0xYHOOk7L-40" value="" style="rounded=0;whiteSpace=wrap;html=1;fillColor=#FFE45E;strokeColor=#FF6392;fontColor=#5AA9E6;" parent="19uY2m7G7Lr0xYHOOk7L-34" vertex="1">
                    <mxGeometry x="130" width="50" height="30" as="geometry"/>
                </mxCell>
                <mxCell id="19uY2m7G7Lr0xYHOOk7L-41" value="" style="rounded=0;whiteSpace=wrap;html=1;fillColor=#FFE45E;strokeColor=#FF6392;fontColor=#5AA9E6;" parent="19uY2m7G7Lr0xYHOOk7L-34" vertex="1">
                    <mxGeometry x="180" width="10" height="30" as="geometry"/>
                </mxCell>
                <mxCell id="19uY2m7G7Lr0xYHOOk7L-42" value="A≤A" style="edgeStyle=orthogonalEdgeStyle;rounded=0;orthogonalLoop=1;jettySize=auto;html=1;exitX=0.5;exitY=1;exitDx=0;exitDy=0;entryX=0.5;entryY=0;entryDx=0;entryDy=0;curved=1;endArrow=blockThin;endFill=1;strokeColor=#FF6392;fontColor=#FF0000;" parent="19uY2m7G7Lr0xYHOOk7L-1" source="19uY2m7G7Lr0xYHOOk7L-5" target="19uY2m7G7Lr0xYHOOk7L-17" edge="1">
                    <mxGeometry relative="1" as="geometry"/>
                </mxCell>
                <mxCell id="19uY2m7G7Lr0xYHOOk7L-47" value="" style="edgeStyle=orthogonalEdgeStyle;curved=1;rounded=1;sketch=0;orthogonalLoop=1;jettySize=auto;html=1;exitX=0.5;exitY=1;exitDx=0;exitDy=0;entryX=0.25;entryY=0;entryDx=0;entryDy=0;fontColor=#5AA9E6;fillColor=#FFE45E;strokeColor=#FFE45E;" parent="19uY2m7G7Lr0xYHOOk7L-1" source="19uY2m7G7Lr0xYHOOk7L-6" target="19uY2m7G7Lr0xYHOOk7L-27" edge="1">
                    <mxGeometry relative="1" as="geometry"/>
                </mxCell>
                <mxCell id="19uY2m7G7Lr0xYHOOk7L-48" value="" style="edgeStyle=orthogonalEdgeStyle;curved=1;rounded=1;sketch=0;orthogonalLoop=1;jettySize=auto;html=1;exitX=0.5;exitY=1;exitDx=0;exitDy=0;entryX=0.25;entryY=0;entryDx=0;entryDy=0;fontColor=#5AA9E6;fillColor=#FFE45E;strokeColor=#FFE45E;" parent="19uY2m7G7Lr0xYHOOk7L-1" source="19uY2m7G7Lr0xYHOOk7L-7" target="19uY2m7G7Lr0xYHOOk7L-35" edge="1">
                    <mxGeometry relative="1" as="geometry"/>
                </mxCell>
                <mxCell id="19uY2m7G7Lr0xYHOOk7L-68" value="" style="group;fontColor=#5AA9E6;" vertex="1" connectable="0" parent="19uY2m7G7Lr0xYHOOk7L-1">
                    <mxGeometry x="789" y="370" width="190" height="30" as="geometry"/>
                </mxCell>
                <mxCell id="19uY2m7G7Lr0xYHOOk7L-70" value="C,D" style="rounded=0;whiteSpace=wrap;html=1;fillColor=#FFE45E;strokeColor=#FF6392;fontColor=#5AA9E6;" vertex="1" parent="19uY2m7G7Lr0xYHOOk7L-68">
                    <mxGeometry x="70" width="50" height="30" as="geometry"/>
                </mxCell>
                <mxCell id="19uY2m7G7Lr0xYHOOk7L-71" value="" style="rounded=0;whiteSpace=wrap;html=1;fillColor=#FFE45E;strokeColor=#FF6392;fontColor=#5AA9E6;" vertex="1" parent="19uY2m7G7Lr0xYHOOk7L-68">
                    <mxGeometry width="10" height="30" as="geometry"/>
                </mxCell>
                <mxCell id="19uY2m7G7Lr0xYHOOk7L-72" value="" style="rounded=0;whiteSpace=wrap;html=1;fillColor=#FFE45E;strokeColor=#FF6392;fontColor=#5AA9E6;" vertex="1" parent="19uY2m7G7Lr0xYHOOk7L-68">
                    <mxGeometry x="60" width="10" height="30" as="geometry"/>
                </mxCell>
                <mxCell id="19uY2m7G7Lr0xYHOOk7L-73" value="" style="rounded=0;whiteSpace=wrap;html=1;fillColor=#FFE45E;strokeColor=#FF6392;fontColor=#5AA9E6;" vertex="1" parent="19uY2m7G7Lr0xYHOOk7L-68">
                    <mxGeometry x="120" width="10" height="30" as="geometry"/>
                </mxCell>
                <mxCell id="19uY2m7G7Lr0xYHOOk7L-74" value="" style="rounded=0;whiteSpace=wrap;html=1;fillColor=#FFE45E;strokeColor=#FF6392;fontColor=#5AA9E6;" vertex="1" parent="19uY2m7G7Lr0xYHOOk7L-68">
                    <mxGeometry x="130" width="50" height="30" as="geometry"/>
                </mxCell>
                <mxCell id="19uY2m7G7Lr0xYHOOk7L-75" value="" style="rounded=0;whiteSpace=wrap;html=1;fillColor=#FFE45E;strokeColor=#FF6392;fontColor=#5AA9E6;" vertex="1" parent="19uY2m7G7Lr0xYHOOk7L-68">
                    <mxGeometry x="180" width="10" height="30" as="geometry"/>
                </mxCell>
                <mxCell id="19uY2m7G7Lr0xYHOOk7L-69" value="C,C" style="rounded=0;whiteSpace=wrap;html=1;fillColor=#FFE45E;strokeColor=#FF6392;fontColor=#5AA9E6;" vertex="1" parent="19uY2m7G7Lr0xYHOOk7L-68">
                    <mxGeometry x="10" width="50" height="30" as="geometry"/>
                </mxCell>
                <mxCell id="19uY2m7G7Lr0xYHOOk7L-79" style="edgeStyle=orthogonalEdgeStyle;curved=1;rounded=1;sketch=0;orthogonalLoop=1;jettySize=auto;html=1;exitX=0.5;exitY=1;exitDx=0;exitDy=0;entryX=0.25;entryY=0;entryDx=0;entryDy=0;fontColor=#5AA9E6;startSize=0;fillColor=#FFE45E;strokeColor=#FFE45E;" edge="1" parent="19uY2m7G7Lr0xYHOOk7L-1" source="19uY2m7G7Lr0xYHOOk7L-9" target="19uY2m7G7Lr0xYHOOk7L-69">
                    <mxGeometry relative="1" as="geometry"/>
                </mxCell>
                <mxCell id="19uY2m7G7Lr0xYHOOk7L-81" value="&lt;font style=&quot;font-size: 27px&quot;&gt;Find Key=(A,&lt;font color=&quot;#ff6392&quot;&gt;*&lt;/font&gt;)&lt;/font&gt;" style="text;html=1;align=center;verticalAlign=middle;resizable=0;points=[];autosize=1;strokeColor=none;fontColor=#5AA9E6;" vertex="1" parent="19uY2m7G7Lr0xYHOOk7L-1">
                    <mxGeometry x="233" y="140" width="186" height="23" as="geometry"/>
                </mxCell>
                <mxCell id="19uY2m7G7Lr0xYHOOk7L-86" style="edgeStyle=orthogonalEdgeStyle;curved=1;rounded=1;sketch=0;orthogonalLoop=1;jettySize=auto;html=1;exitX=0.5;exitY=1;exitDx=0;exitDy=0;entryX=0.5;entryY=1;entryDx=0;entryDy=0;fontColor=#5AA9E6;startSize=0;fillColor=#FFE45E;strokeColor=#FF6392;" edge="1" parent="19uY2m7G7Lr0xYHOOk7L-1" source="19uY2m7G7Lr0xYHOOk7L-29" target="19uY2m7G7Lr0xYHOOk7L-21">
                    <mxGeometry relative="1" as="geometry">
                        <Array as="points">
                            <mxPoint x="395" y="410"/>
                            <mxPoint x="375" y="410"/>
                        </Array>
                    </mxGeometry>
                </mxCell>
                <mxCell id="19uY2m7G7Lr0xYHOOk7L-87" style="edgeStyle=orthogonalEdgeStyle;curved=1;rounded=1;sketch=0;orthogonalLoop=1;jettySize=auto;html=1;exitX=0.5;exitY=0;exitDx=0;exitDy=0;entryX=0.5;entryY=0;entryDx=0;entryDy=0;fontColor=#5AA9E6;startSize=0;fillColor=#FFE45E;strokeColor=#FF6392;" edge="1" parent="19uY2m7G7Lr0xYHOOk7L-1" source="19uY2m7G7Lr0xYHOOk7L-21" target="19uY2m7G7Lr0xYHOOk7L-29">
                    <mxGeometry relative="1" as="geometry">
                        <Array as="points">
                            <mxPoint x="375" y="360"/>
                            <mxPoint x="395" y="360"/>
                        </Array>
                    </mxGeometry>
                </mxCell>
                <mxCell id="19uY2m7G7Lr0xYHOOk7L-88" style="edgeStyle=orthogonalEdgeStyle;curved=1;rounded=1;sketch=0;orthogonalLoop=1;jettySize=auto;html=1;exitX=0.5;exitY=0;exitDx=0;exitDy=0;entryX=0.5;entryY=0;entryDx=0;entryDy=0;fontColor=#5AA9E6;startSize=0;strokeColor=#FF6392;fillColor=#FFE45E;" edge="1" parent="19uY2m7G7Lr0xYHOOk7L-1" source="19uY2m7G7Lr0xYHOOk7L-33" target="19uY2m7G7Lr0xYHOOk7L-37">
                    <mxGeometry relative="1" as="geometry">
                        <Array as="points">
                            <mxPoint x="575" y="360"/>
                            <mxPoint x="595" y="360"/>
                        </Array>
                    </mxGeometry>
                </mxCell>
                <mxCell id="19uY2m7G7Lr0xYHOOk7L-89" style="edgeStyle=orthogonalEdgeStyle;curved=1;rounded=1;sketch=0;orthogonalLoop=1;jettySize=auto;html=1;exitX=0.5;exitY=1;exitDx=0;exitDy=0;entryX=0.5;entryY=1;entryDx=0;entryDy=0;fontColor=#5AA9E6;startSize=0;strokeColor=#FF6392;fillColor=#FFE45E;" edge="1" parent="19uY2m7G7Lr0xYHOOk7L-1" source="19uY2m7G7Lr0xYHOOk7L-37" target="19uY2m7G7Lr0xYHOOk7L-33">
                    <mxGeometry relative="1" as="geometry">
                        <Array as="points">
                            <mxPoint x="595" y="410"/>
                            <mxPoint x="575" y="410"/>
                        </Array>
                    </mxGeometry>
                </mxCell>
                <mxCell id="19uY2m7G7Lr0xYHOOk7L-90" style="edgeStyle=orthogonalEdgeStyle;curved=1;rounded=1;sketch=0;orthogonalLoop=1;jettySize=auto;html=1;exitX=0.5;exitY=0;exitDx=0;exitDy=0;entryX=0.5;entryY=0;entryDx=0;entryDy=0;fontColor=#5AA9E6;startSize=0;strokeColor=#FF6392;fillColor=#FFE45E;" edge="1" parent="19uY2m7G7Lr0xYHOOk7L-1" source="19uY2m7G7Lr0xYHOOk7L-41" target="19uY2m7G7Lr0xYHOOk7L-71">
                    <mxGeometry relative="1" as="geometry">
                        <Array as="points">
                            <mxPoint x="775" y="360"/>
                            <mxPoint x="794" y="360"/>
                        </Array>
                    </mxGeometry>
                </mxCell>
                <mxCell id="19uY2m7G7Lr0xYHOOk7L-92" style="edgeStyle=orthogonalEdgeStyle;curved=1;rounded=1;sketch=0;orthogonalLoop=1;jettySize=auto;html=1;exitX=0.5;exitY=1;exitDx=0;exitDy=0;entryX=0.5;entryY=1;entryDx=0;entryDy=0;fontColor=#5AA9E6;startSize=0;strokeColor=#FF6392;fillColor=#FFE45E;" edge="1" parent="19uY2m7G7Lr0xYHOOk7L-1" source="19uY2m7G7Lr0xYHOOk7L-71" target="19uY2m7G7Lr0xYHOOk7L-41">
                    <mxGeometry relative="1" as="geometry">
                        <Array as="points">
                            <mxPoint x="794" y="410"/>
                            <mxPoint x="775" y="410"/>
                        </Array>
                    </mxGeometry>
                </mxCell>
                <mxCell id="19uY2m7G7Lr0xYHOOk7L-97" value="" style="endArrow=none;html=1;fontColor=#5AA9E6;startSize=0;fillColor=#FFE45E;strokeColor=#FF0000;exitX=0;exitY=0;exitDx=0;exitDy=0;strokeWidth=2;" edge="1" parent="19uY2m7G7Lr0xYHOOk7L-1" source="19uY2m7G7Lr0xYHOOk7L-5">
                    <mxGeometry width="50" height="50" relative="1" as="geometry">
                        <mxPoint x="591" y="233" as="sourcePoint"/>
                        <mxPoint x="501" y="233" as="targetPoint"/>
                    </mxGeometry>
                </mxCell>
                <mxCell id="19uY2m7G7Lr0xYHOOk7L-106" value="" style="shape=flexArrow;endArrow=classic;html=1;fontColor=#FF0000;startSize=0;strokeColor=#FF0000;strokeWidth=2;fillColor=#FFE45E;" edge="1" parent="19uY2m7G7Lr0xYHOOk7L-1">
                    <mxGeometry width="50" height="50" relative="1" as="geometry">
                        <mxPoint x="419" y="450" as="sourcePoint"/>
                        <mxPoint x="419" y="410" as="targetPoint"/>
                    </mxGeometry>
                </mxCell>
                <mxCell id="19uY2m7G7Lr0xYHOOk7L-107" value="A≤B" style="text;html=1;align=center;verticalAlign=middle;resizable=0;points=[];autosize=1;strokeColor=none;fontColor=#FF0000;" vertex="1" parent="19uY2m7G7Lr0xYHOOk7L-1">
                    <mxGeometry x="400" y="450" width="40" height="20" as="geometry"/>
                </mxCell>
            </root>
        </mxGraphModel>
    </diagram>
</mxfile>
